<svg xmlns="http://www.w3.org/2000/svg" width="45" height="45" viewBox="0 0 45 45">
  <g id="グループ_30823" data-name="グループ 30823" transform="translate(-1215 -172)">
    <circle id="楕円形_311" data-name="楕円形 311" cx="22.5" cy="22.5" r="22.5" transform="translate(1215 172)" fill="#f0f3f5"/>
    <path id="前面オブジェクトで型抜き_5" data-name="前面オブジェクトで型抜き 5" d="M6.186,23.7a12.83,12.83,0,0,1-2.356-.218V13.656H0V9.262H3.83V5.914C3.83,2.211,5.96,0,9.527,0A23.169,23.169,0,0,1,12.9.3V4.038H11A2.184,2.184,0,0,0,8.544,6.413V9.262h4.182l-.668,4.394H8.544v9.828A12.83,12.83,0,0,1,6.186,23.7Z" transform="translate(1231.048 182.648)" fill="#333" stroke="#333" stroke-width="0.2"/>
  </g>
</svg>
