<svg xmlns="http://www.w3.org/2000/svg" width="57" height="56" viewBox="0 0 57 56">
  <g id="グループ_30827" data-name="グループ 30827" transform="translate(-932 -3818.518)">
    <ellipse id="楕円形_304" data-name="楕円形 304" cx="28.5" cy="28" rx="28.5" ry="28" transform="translate(932 3818.518)" fill="#e0f0fe"/>
    <path id="パス_779" data-name="パス 779" d="M1821.006,920.55a6.065,6.065,0,0,1,3.924-7.045c3.074-1.392,6.206,1.587,6.206,1.587l3.744-1.495c0,1.6-2.674,3.209-2.674,3.209a13.057,13.057,0,0,0,3.744-.535c0,.535-3.209,3.209-3.209,3.209,0,12.835-9.627,18.184-17.648,18.184s-9.092-3.209-9.092-3.209c6.418,0,8.557-2.674,8.557-2.674-1.6,1.069-5.348-3.744-5.348-3.744,1.069.535,3.209,0,3.209,0-3.209-.535-5.348-6.418-5.348-6.418.535,1.07,3.208,1.07,3.208,1.07-4.278-4.279-2.139-8.557-2.139-8.557C1811.348,919.481,1821.006,920.55,1821.006,920.55Z" transform="translate(-860.475 2921.277)" fill="#333"/>
  </g>
</svg>
