<svg xmlns="http://www.w3.org/2000/svg" width="45" height="45" viewBox="0 0 45 45">
  <g id="グループ_30824" data-name="グループ 30824" transform="translate(-1215 -229)">
    <circle id="楕円形_308" data-name="楕円形 308" cx="22.5" cy="22.5" r="22.5" transform="translate(1215 229)" fill="#f0f3f5"/>
    <path id="パス_779" data-name="パス 779" d="M1818.065,919.1a4.876,4.876,0,0,1,3.155-5.664c2.471-1.12,4.99,1.276,4.99,1.276l3.01-1.2c0,1.29-2.15,2.58-2.15,2.58a10.5,10.5,0,0,0,3.01-.43c0,.43-2.58,2.58-2.58,2.58,0,10.32-7.74,14.62-14.19,14.62s-7.31-2.58-7.31-2.58c5.16,0,6.88-2.15,6.88-2.15-1.29.86-4.3-3.01-4.3-3.01a4.927,4.927,0,0,0,2.58,0c-2.58-.43-4.3-5.16-4.3-5.16.43.86,2.58.86,2.58.86-3.44-3.44-1.72-6.88-1.72-6.88C1810.3,918.237,1818.065,919.1,1818.065,919.1Z" transform="translate(-580.541 -671.064)" fill="#333"/>
  </g>
</svg>
