<svg xmlns="http://www.w3.org/2000/svg" width="56" height="56" viewBox="0 0 56 56">
  <g id="グループ_30826" data-name="グループ 30826" transform="translate(-852 -3818.518)">
    <circle id="楕円形_302" data-name="楕円形 302" cx="28" cy="28" r="28" transform="translate(852 3818.518)" fill="#e0f0fe"/>
    <path id="前面オブジェクトで型抜き_4" data-name="前面オブジェクトで型抜き 4" d="M7.694,29.479a15.957,15.957,0,0,1-2.931-.271V16.984H0V11.52H4.763V7.355C4.763,2.749,7.412,0,11.849,0a28.816,28.816,0,0,1,4.2.369V5.022H13.683a2.716,2.716,0,0,0-3.056,2.953V11.52h5.2L15,16.984H10.627V29.208A15.956,15.956,0,0,1,7.694,29.479Z" transform="translate(872.268 3831.742)" fill="#333" stroke="#e0f0fe" stroke-width="1"/>
  </g>
</svg>
