<svg xmlns="http://www.w3.org/2000/svg" width="45" height="45" viewBox="0 0 45 45">
  <g id="グループ_30825" data-name="グループ 30825" transform="translate(-1215 -286)">
    <circle id="楕円形_307" data-name="楕円形 307" cx="22.5" cy="22.5" r="22.5" transform="translate(1215 286)" fill="#f0f3f5"/>
    <g id="ic_share_24px" transform="translate(1225 297)">
      <path id="パス_236" data-name="パス 236" d="M0,0H24V24H0Z" fill="none"/>
      <path id="パス_237" data-name="パス 237" d="M18,16.08a2.912,2.912,0,0,0-1.96.77L8.91,12.7A3.274,3.274,0,0,0,9,12a3.274,3.274,0,0,0-.09-.7l7.05-4.11A2.993,2.993,0,1,0,15,5a3.274,3.274,0,0,0,.09.7L8.04,9.81a3,3,0,1,0,0,4.38l7.12,4.16a2.821,2.821,0,0,0-.08.65A2.92,2.92,0,1,0,18,16.08Z" fill="#333"/>
    </g>
  </g>
</svg>
