<svg xmlns="http://www.w3.org/2000/svg" width="56" height="56" viewBox="0 0 56 56">
  <g id="グループ_30828" data-name="グループ 30828" transform="translate(-1013 -3819.518)">
    <circle id="楕円形_303" data-name="楕円形 303" cx="28" cy="28" r="28" transform="translate(1013 3819.518)" fill="#e0f0fe"/>
    <g id="ic_share_24px" transform="translate(1027.412 3834.412)">
      <path id="パス_236" data-name="パス 236" d="M0,0H27.176V27.176H0Z" fill="none"/>
      <path id="パス_237" data-name="パス 237" d="M19.985,17.943a3.3,3.3,0,0,0-2.219.872l-8.073-4.7a3.707,3.707,0,0,0,.1-.793,3.707,3.707,0,0,0-.1-.793l7.983-4.654A3.389,3.389,0,1,0,16.588,5.4a3.707,3.707,0,0,0,.1.793L8.707,10.843a3.4,3.4,0,1,0,0,4.96l8.062,4.71a3.2,3.2,0,0,0-.091.736,3.306,3.306,0,1,0,3.306-3.306Z" transform="translate(0.397 0.265)" fill="#333"/>
    </g>
  </g>
</svg>
